<svg width="17" height="17" viewBox="0 0 17 17" fill="none" xmlns="http://www.w3.org/2000/svg">
<path fill-rule="evenodd" clip-rule="evenodd" d="M8.5 0C3.80587 0 0 3.80587 0 8.5C0 13.1941 3.80587 17 8.5 17C13.1941 17 17 13.1941 17 8.5C17 3.80587 13.1941 0 8.5 0ZM8.5 1.41667C12.4058 1.41667 15.5833 4.59425 15.5833 8.5C15.5833 12.4058 12.4058 15.5833 8.5 15.5833C4.59425 15.5833 1.41667 12.4058 1.41667 8.5C1.41667 4.59425 4.59425 1.41667 8.5 1.41667ZM11.9205 5.29975L12.9271 6.29779L7.61458 11.7002L4.42708 8.64096L5.41592 7.62379L7.59617 9.70417L11.9205 5.29975Z" fill="#64C200"/>
</svg>
