<svg xmlns="http://www.w3.org/2000/svg" width="11" height="19" viewBox="0 0 11 19">
    <path fill="#F9F9F9" d="M11 1.583C11 .71 10.296 0 9.429 0H1.57C.704 0 0 .71 0 1.583v15.834C0 18.29.704 19 1.571 19H9.43c.867 0 1.571-.71 1.571-1.583V1.583zm-6.679 0H6.68c.216 0 .392.178.392.396 0 .219-.176.396-.392.396H4.32c-.216 0-.392-.177-.392-.396 0-.218.176-.396.392-.396zM5.5 17.417c-.435 0-.786-.355-.786-.792 0-.437.351-.792.786-.792.434 0 .785.355.785.792 0 .437-.351.792-.785.792zm3.929-2.375H1.57V3.939H9.43v11.103z"/>
</svg>
