<svg xmlns="http://www.w3.org/2000/svg" width="19" height="19" viewBox="0 0 19 19">
    <path fill="#F9F9F9" d="M9.5 1.583c4.365 0 7.917 3.552 7.917 7.917s-3.552 7.917-7.917 7.917S1.583 13.865 1.583 9.5 5.135 1.583 9.5 1.583zM9.5 0C4.254 0 0 4.254 0 9.5S4.254 19 9.5 19 19 14.746 19 9.5 14.746 0 9.5 0zm3.167 11.149c0-1.698-1.767-2.17-3.122-2.807-.822-.428-.719-1.448.46-1.517.654-.04 1.326.154 1.934.368l.287-1.304c-.718-.218-1.361-.318-1.934-.333V4.75H9.5v.845c-1.54.211-2.362 1.177-2.362 2.256 0 1.93 2.254 2.225 2.99 2.567 1.006.45.82 1.386-.09 1.592-.789.18-1.796-.133-2.553-.427l-.36 1.301c.708.366 1.556.56 2.375.576v.79h.792v-.834c1.311-.183 2.376-.907 2.375-2.267z"/>
</svg>
